<svg width="24" height="24" viewBox="0 0 24 24" fill="none" xmlns="http://www.w3.org/2000/svg">
<g clip-path="url(#clip0_65_71)">
<path d="M14.8125 11.25H9.1875C8.79919 11.25 8.48438 11.5648 8.48438 11.9531V23.2969C8.48438 23.6852 8.79919 24 9.1875 24H14.8125C15.2008 24 15.5156 23.6852 15.5156 23.2969V11.9531C15.5156 11.5648 15.2008 11.25 14.8125 11.25ZM14.1094 22.5938H9.89062V12.6562H14.1094V22.5938Z" fill="white"/>
<path d="M23.25 16.875H17.625C17.2367 16.875 16.9219 17.1898 16.9219 17.5781V23.2969C16.9219 23.6852 17.2367 24 17.625 24H23.25C23.6383 24 23.9531 23.6852 23.9531 23.2969V17.5781C23.9531 17.1898 23.6383 16.875 23.25 16.875ZM22.5469 22.5938H18.3281V18.2812H22.5469V22.5938Z" fill="white"/>
<path d="M6.375 14.0625H0.75C0.361687 14.0625 0.046875 14.3773 0.046875 14.7656V23.2969C0.046875 23.6852 0.361687 24 0.75 24H6.375C6.76331 24 7.07812 23.6852 7.07812 23.2969V14.7656C7.07812 14.3773 6.76331 14.0625 6.375 14.0625ZM5.67188 22.5938H1.45312V15.4688H5.67188V22.5938Z" fill="white"/>
<path d="M13.9051 4.3133C14.323 3.85491 14.5781 3.24577 14.5781 2.57812C14.5781 1.15655 13.4216 0 12 0C10.5784 0 9.42188 1.15655 9.42188 2.57812C9.42188 3.24577 9.67702 3.85491 10.0949 4.3133C9.1268 4.94016 8.48438 6.02892 8.48438 7.26562V8.67188C8.48438 9.06019 8.79919 9.375 9.1875 9.375H14.8125C15.2008 9.375 15.5156 9.06019 15.5156 8.67188V7.26562C15.5156 6.02892 14.8732 4.94016 13.9051 4.3133ZM10.8281 2.57812C10.8281 1.93195 11.3538 1.40625 12 1.40625C12.6462 1.40625 13.1719 1.93195 13.1719 2.57812C13.1719 3.2243 12.6462 3.75 12 3.75C11.3538 3.75 10.8281 3.2243 10.8281 2.57812ZM14.1094 7.96875H9.89062V7.26562C9.89062 6.10252 10.8369 5.15625 12 5.15625C13.1631 5.15625 14.1094 6.10252 14.1094 7.26562V7.96875Z" fill="white"/>
<path d="M5.46764 7.1258C5.88548 6.66741 6.14062 6.05827 6.14062 5.39062C6.14062 3.96905 4.98408 2.8125 3.5625 2.8125C2.14092 2.8125 0.984375 3.96905 0.984375 5.39062C0.984375 6.05827 1.23952 6.66741 1.65736 7.1258C0.689297 7.75266 0.046875 8.84142 0.046875 10.0781V11.4844C0.046875 11.8727 0.361687 12.1875 0.75 12.1875H6.375C6.76331 12.1875 7.07812 11.8727 7.07812 11.4844V10.0781C7.07812 8.84142 6.4357 7.75266 5.46764 7.1258ZM2.39062 5.39062C2.39062 4.74445 2.91633 4.21875 3.5625 4.21875C4.20867 4.21875 4.73438 4.74445 4.73438 5.39062C4.73438 6.0368 4.20867 6.5625 3.5625 6.5625C2.91633 6.5625 2.39062 6.0368 2.39062 5.39062ZM5.67188 10.7812H1.45312V10.0781C1.45312 8.91502 2.39939 7.96875 3.5625 7.96875C4.72561 7.96875 5.67188 8.91502 5.67188 10.0781V10.7812Z" fill="white"/>
<path d="M22.3426 9.9383C22.7605 9.47991 23.0156 8.87077 23.0156 8.20312C23.0156 6.78155 21.8591 5.625 20.4375 5.625C19.0159 5.625 17.8594 6.78155 17.8594 8.20312C17.8594 8.87077 18.1145 9.47991 18.5324 9.9383C17.5643 10.5652 16.9219 11.6539 16.9219 12.8906V14.2969C16.9219 14.6852 17.2367 15 17.625 15H23.25C23.6383 15 23.9531 14.6852 23.9531 14.2969V12.8906C23.9531 11.6539 23.3107 10.5652 22.3426 9.9383ZM19.2656 8.20312C19.2656 7.55695 19.7913 7.03125 20.4375 7.03125C21.0837 7.03125 21.6094 7.55695 21.6094 8.20312C21.6094 8.8493 21.0837 9.375 20.4375 9.375C19.7913 9.375 19.2656 8.8493 19.2656 8.20312ZM22.5469 13.5938H18.3281V12.8906C18.3281 11.7275 19.2744 10.7812 20.4375 10.7812C21.6006 10.7812 22.5469 11.7275 22.5469 12.8906V13.5938Z" fill="white"/>
</g>
<defs>
<clipPath id="clip0_65_71">
<rect width="24" height="24" fill="white"/>
</clipPath>
</defs>
</svg>
