<svg width="13" height="12" viewBox="0 0 13 12" fill="none" xmlns="http://www.w3.org/2000/svg">
<g clip-path="url(#clip0_65_425)">
<path d="M12.2308 5.73292L8.63096 1.73313C8.55417 1.64834 8.44697 1.60034 8.33338 1.60034H5.93351C5.77592 1.60034 5.63273 1.69314 5.56793 1.83713C5.50393 1.98192 5.53033 2.15071 5.63593 2.26751L8.99494 6.0001L5.63593 9.7319C5.53033 9.84949 5.50313 10.0183 5.56793 10.1623C5.63273 10.3071 5.77592 10.3999 5.93351 10.3999H8.33338C8.44697 10.3999 8.55417 10.3511 8.63096 10.2679L12.2308 6.26809C12.3676 6.1161 12.3676 5.88411 12.2308 5.73292Z" fill="white"/>
<path d="M7.03106 5.73292L3.43126 1.73313C3.35446 1.64834 3.24727 1.60034 3.13367 1.60034H0.733802C0.576211 1.60034 0.433018 1.69314 0.368222 1.83713C0.304225 1.98192 0.330624 2.15071 0.436218 2.26751L3.79524 6.0001L0.436218 9.7319C0.330624 9.84949 0.303425 10.0183 0.368222 10.1623C0.433018 10.3071 0.576211 10.3999 0.733802 10.3999H3.13367C3.24727 10.3999 3.35446 10.3511 3.43126 10.2679L7.03106 6.26809C7.16785 6.1161 7.16785 5.88411 7.03106 5.73292Z" fill="white"/>
</g>
<defs>
<clipPath id="clip0_65_425">
<rect width="12" height="12" fill="white" transform="translate(0.333374)"/>
</clipPath>
</defs>
</svg>
