<svg width="24" height="24" viewBox="0 0 24 24" fill="none" xmlns="http://www.w3.org/2000/svg">
<path d="M22.669 10.257L12.669 1.257C12.4853 1.09172 12.247 1.00026 12 1.00026C11.7529 1.00026 11.5146 1.09172 11.331 1.257L1.33097 10.257C1.13992 10.436 1.02667 10.6827 1.01555 10.9443C1.00443 11.2059 1.09633 11.4614 1.2715 11.6559C1.44668 11.8505 1.69117 11.9686 1.95245 11.9848C2.21374 12.0011 2.471 11.9143 2.66897 11.743L12 3.345L21.331 11.745C21.5289 11.9163 21.7862 12.0031 22.0475 11.9868C22.3088 11.9706 22.5533 11.8525 22.7284 11.6579C22.9036 11.4634 22.9955 11.2079 22.9844 10.9463C22.9733 10.6847 22.86 10.438 22.669 10.259V10.257Z" fill="white"/>
<path d="M20 13C19.7348 13 19.4804 13.1054 19.2929 13.2929C19.1054 13.4804 19 13.7348 19 14V19.774C18.9997 20.0991 18.8705 20.4108 18.6406 20.6406C18.4108 20.8705 18.0991 20.9997 17.774 21H6.226C5.90093 20.9997 5.58924 20.8705 5.35938 20.6406C5.12952 20.4108 5.00026 20.0991 5 19.774V14C5 13.7348 4.89464 13.4804 4.70711 13.2929C4.51957 13.1054 4.26522 13 4 13C3.73478 13 3.48043 13.1054 3.29289 13.2929C3.10536 13.4804 3 13.7348 3 14V19.774C3.00079 20.6293 3.34093 21.4494 3.94575 22.0542C4.55057 22.6591 5.37066 22.9992 6.226 23H17.774C18.6293 22.9992 19.4494 22.6591 20.0542 22.0542C20.6591 21.4494 20.9992 20.6293 21 19.774V14C21 13.7348 20.8946 13.4804 20.7071 13.2929C20.5196 13.1054 20.2652 13 20 13Z" fill="white"/>
</svg>
