<svg width="28" height="28" viewBox="0 0 28 28" fill="none" xmlns="http://www.w3.org/2000/svg">
<g clip-path="url(#clip0_65_86)">
<path d="M14 0C11.2311 0 8.52431 0.821086 6.22202 2.35943C3.91973 3.89777 2.12532 6.08427 1.06569 8.64243C0.00606603 11.2006 -0.271181 14.0155 0.269012 16.7313C0.809205 19.447 2.14258 21.9416 4.10051 23.8995C6.05845 25.8574 8.55301 27.1908 11.2687 27.731C13.9845 28.2712 16.7994 27.9939 19.3576 26.9343C21.9157 25.8747 24.1022 24.0803 25.6406 21.778C27.1789 19.4757 28 16.7689 28 14C28 10.287 26.525 6.72601 23.8995 4.10051C21.274 1.475 17.713 0 14 0ZM22.75 13.6818C22.7376 13.8596 22.7147 14.0365 22.6816 14.2116C22.5709 14.882 22.3443 15.5281 22.0118 16.1207C21.8527 16.4039 21.0875 17.4793 20.8536 17.7625C19.5602 19.32 17.3934 21.1177 13.7725 22.8661C13.6961 22.903 13.6113 22.9189 13.5267 22.9121C13.4421 22.9053 13.3609 22.8761 13.2914 22.8275C13.2219 22.7789 13.1666 22.7126 13.1312 22.6355C13.0958 22.5584 13.0816 22.4733 13.09 22.3889L13.273 20.7455C13.2868 20.6197 13.2502 20.4937 13.1711 20.3949C13.0921 20.2962 12.9771 20.2329 12.8514 20.2189C11.6468 20.0984 10.4734 19.7638 9.38637 19.2309C6.90455 18.0043 5.25001 15.8136 5.25001 13.3175C5.25001 9.47386 9.16682 6.36364 14 6.36364C16.4277 6.36364 18.6232 7.15909 20.2046 8.42068C21.6857 9.60591 22.6339 11.2143 22.7357 12.9993C22.7527 13.2264 22.7574 13.4542 22.75 13.6818Z" fill="#11C656"/>
<path d="M11.5882 14.8575C11.6305 14.8989 11.664 14.9484 11.6867 15.0031C11.7094 15.0578 11.7208 15.1165 11.7203 15.1757C11.7205 15.2345 11.7091 15.2928 11.6867 15.3473C11.6643 15.4017 11.6314 15.4511 11.5899 15.4928C11.5483 15.5345 11.499 15.5676 11.4447 15.5901C11.3903 15.6127 11.3321 15.6243 11.2732 15.6243H9.48344C9.36458 15.6239 9.25071 15.5765 9.16667 15.4925C9.08262 15.4084 9.03522 15.2945 9.0348 15.1757V11.795C9.03441 11.7358 9.04589 11.6772 9.06857 11.6225C9.09125 11.5679 9.12467 11.5183 9.16685 11.4768C9.22946 11.414 9.30935 11.3712 9.39635 11.354C9.48334 11.3367 9.57351 11.3457 9.65538 11.3798C9.73726 11.4139 9.80713 11.4716 9.85612 11.5455C9.9051 11.6195 9.93099 11.7063 9.93048 11.795V14.7271H11.2732C11.3318 14.7266 11.3898 14.7379 11.4439 14.7603C11.498 14.7827 11.5471 14.8158 11.5882 14.8575Z" fill="#11C656"/>
<path d="M13.0455 11.698V15.2727C13.0451 15.3654 13.008 15.4542 12.9425 15.5198C12.877 15.5853 12.7882 15.6223 12.6955 15.6227H12.495C12.4022 15.6227 12.3132 15.5859 12.2475 15.5202C12.1819 15.4546 12.145 15.3656 12.145 15.2727V11.698C12.145 11.6051 12.1819 11.5161 12.2475 11.4505C12.3132 11.3848 12.4022 11.348 12.495 11.348H12.6907C12.737 11.3475 12.7829 11.3563 12.8259 11.3737C12.8688 11.391 12.9078 11.4167 12.9408 11.4492C12.9738 11.4818 13 11.5205 13.018 11.5632C13.0359 11.6058 13.0453 11.6517 13.0455 11.698Z" fill="#11C656"/>
<path d="M17.2009 11.795V15.1566C17.201 15.2775 17.1541 15.3937 17.0701 15.4807C16.9861 15.5677 16.8716 15.6186 16.7507 15.6227C16.6375 15.6209 16.529 15.5766 16.4468 15.4986C16.4309 15.4859 15.8296 14.7032 15.3189 14.0446C14.9371 13.553 14.6062 13.1234 14.6062 13.1234V15.1741C14.6065 15.261 14.5814 15.3461 14.5341 15.419C14.4868 15.4919 14.4192 15.5495 14.3397 15.5846C14.2602 15.6197 14.1722 15.6309 14.0864 15.6167C14.0007 15.6026 13.9209 15.5638 13.8568 15.505C13.8107 15.4632 13.7738 15.4121 13.7486 15.3551C13.7233 15.2981 13.7104 15.2364 13.7105 15.1741V11.8141C13.709 11.696 13.7529 11.5818 13.8331 11.4951C13.9133 11.4083 14.0237 11.3557 14.1416 11.348C14.2083 11.3469 14.2745 11.3606 14.3353 11.3881C14.396 11.4156 14.45 11.4562 14.4932 11.5071C14.5123 11.5293 15.4366 12.7321 15.9568 13.4161C16.1637 13.6834 16.3068 13.8711 16.3068 13.8711V11.803C16.3077 11.6847 16.355 11.5714 16.4387 11.4878C16.5224 11.4041 16.6356 11.3567 16.7539 11.3559C16.8711 11.3559 16.9836 11.4019 17.0672 11.484C17.1508 11.5662 17.1989 11.6778 17.2009 11.795Z" fill="#11C656"/>
<path d="M18.7728 13.9316V14.7271H20.1139C20.175 14.7234 20.2361 14.7323 20.2936 14.7532C20.3511 14.774 20.4037 14.8064 20.4483 14.8484C20.4928 14.8903 20.5282 14.9409 20.5525 14.9971C20.5767 15.0532 20.5892 15.1137 20.5892 15.1749C20.5892 15.2361 20.5767 15.2966 20.5525 15.3527C20.5282 15.4089 20.4928 15.4595 20.4483 15.5014C20.4037 15.5434 20.3511 15.5758 20.2936 15.5966C20.2361 15.6175 20.175 15.6264 20.1139 15.6227H18.3194C18.2007 15.6223 18.0869 15.5749 18.0032 15.4908C17.9194 15.4067 17.8723 15.2928 17.8723 15.1741V11.795C17.8727 11.6766 17.92 11.5631 18.0037 11.4794C18.0875 11.3956 18.2009 11.3484 18.3194 11.348H20.1091C20.1702 11.3443 20.2313 11.3532 20.2888 11.3741C20.3463 11.3949 20.399 11.4273 20.4435 11.4693C20.488 11.5112 20.5235 11.5618 20.5477 11.618C20.572 11.6741 20.5845 11.7346 20.5845 11.7958C20.5845 11.857 20.572 11.9175 20.5477 11.9736C20.5235 12.0298 20.488 12.0804 20.4435 12.1223C20.399 12.1643 20.3463 12.1967 20.2888 12.2175C20.2313 12.2384 20.1702 12.2473 20.1091 12.2436H18.7728V13.0391H20.1139C20.2325 13.0391 20.3462 13.0862 20.43 13.17C20.5139 13.2539 20.561 13.3676 20.561 13.4861C20.561 13.6047 20.5139 13.7184 20.43 13.8023C20.3462 13.8861 20.2325 13.9332 20.1139 13.9332L18.7728 13.9316Z" fill="#11C656"/>
</g>
<defs>
<clipPath id="clip0_65_86">
<rect width="28" height="28" fill="white"/>
</clipPath>
</defs>
</svg>
