<svg width="24" height="25" viewBox="0 0 24 25" fill="none" xmlns="http://www.w3.org/2000/svg">
<g clip-path="url(#clip0_65_97)">
<path d="M9.12213 13.1338C5.63986 13.1338 2.80681 10.3008 2.80681 6.81851C3.12431 -1.54813 15.1213 -1.54583 15.4375 6.8186C15.4375 10.3008 12.6044 13.1338 9.12213 13.1338ZM9.12213 2.37439C6.67165 2.37439 4.67802 4.36802 4.67802 6.81851C4.90144 12.7061 13.3437 12.7045 13.5662 6.81846C13.5662 4.36802 11.5726 2.37439 9.12213 2.37439ZM19.0863 24.4546H12.0686C10.7432 24.4546 9.5032 23.9397 8.57719 23.0048C5.51678 19.9002 7.72509 14.6296 12.0868 14.6308H19.1253C20.4269 14.6308 21.6506 15.1377 22.5709 16.0581C23.4901 16.9774 23.9969 18.1992 23.998 19.4991C24.0778 22.1462 21.7337 24.5111 19.0863 24.4546ZM12.085 16.502C9.39912 16.4865 8.0097 19.7999 9.90668 21.688C10.4786 22.2654 11.2464 22.5834 12.0686 22.5834H19.0863C19.9 22.5834 20.6661 22.2623 21.2436 21.6793C21.821 21.0963 22.1347 20.3268 22.1269 19.5126C22.1269 19.5096 22.1268 19.5066 22.1268 19.5036C22.1602 17.8902 20.7387 16.4686 19.1254 16.502H12.0864C12.0859 16.502 12.0854 16.502 12.085 16.502ZM0.935603 24.4546C0.41887 24.4546 0 24.0358 0 23.519V22.5366C0 19.1399 2.00088 16.0676 5.09754 14.7096C6.25114 14.2539 6.96589 15.8834 5.84902 16.4233C3.43259 17.483 1.87121 19.8826 1.87121 22.5366V23.519C1.87121 24.0358 1.45234 24.4546 0.935603 24.4546ZM20.4429 19.5427C20.3854 17.9926 18.1609 17.9938 18.1039 19.5427C18.1614 21.0928 20.386 21.0916 20.4429 19.5427ZM16.7005 19.5427C16.643 17.9926 14.4185 17.9938 14.3615 19.5427C14.419 21.0928 16.6435 21.0916 16.7005 19.5427ZM12.9581 19.5427C12.9006 17.9926 10.6761 17.9938 10.6191 19.5427C10.6766 21.0928 12.9011 21.0916 12.9581 19.5427Z" fill="white"/>
</g>
<defs>
<clipPath id="clip0_65_97">
<rect width="24" height="24" fill="white" transform="translate(0 0.5)"/>
</clipPath>
</defs>
</svg>
