<svg width="184" height="36" viewBox="0 0 184 36" fill="none" xmlns="http://www.w3.org/2000/svg">
<g clip-path="url(#clip0_65_38)">
<path d="M34.3094 0.659393H2.43316L0 7.57107H4.65311L3.52848 12.3097L2.01475 18.6954L11.1664 18.2523V20.5829H3.56312L1.20192 27.0674H11.1664V29.2805H2.19597L0 35.8051H31.6257L34.0002 29.2805H22.7965V27.0674H30.6636L33.0701 20.5829H22.7965V17.6703L25.0431 17.5528L25.5095 19.0665H34.272L30.7036 7.57107H31.8256L34.3094 0.659393ZM13.6475 11.8051L14.6149 7.57107H21.981L23.1056 11.3005L13.6475 11.8051Z" fill="white"/>
<path d="M52.0264 30.9117H41.87L44.583 35.6876H54.8966L52.0264 30.9117ZM71.1825 7.06652L72.9627 2.25317H67.7286L68.4268 0H58.4624L57.8041 2.25317H53.4601L52.7646 0H42.7601L43.421 2.25317H40.2044L38.4588 7.06652H46.2113V8.15573H38.8079V24.5046H72.419V8.15573H65.013V7.06652H71.1825ZM54.1983 7.06652H56.9886V8.15573H54.1983V7.06652ZM46.4432 11.8452H49.3134V13.0091H46.4432V11.8452ZM64.7038 20.5829H46.4432V19.6885H64.7038V20.5829ZM64.7038 16.816H46.4432V15.9617H54.8193V11.8452H56.4849V15.9617H64.7038V16.816ZM64.7038 13.0492H61.9136V11.8452H64.7038V13.0492ZM69.8206 25.786V24.8543H60.9035V25.786H39.9672L38.3042 30.3697H60.9035V31.3789H53.4228L56.4076 36H69.8206V30.3697H71.401L73 25.786H69.8206Z" fill="white"/>
</g>
<g clip-path="url(#clip1_65_38)">
<path d="M89.0149 22.0062C88.4326 22.0062 87.9937 22.0267 87.5167 22.0677V21.0447H86.7061L85.1435 22.7976C83.7887 20.9626 83.0396 20.1301 81.2487 18.5443L83.6248 16.2931C84.687 17.1696 85.6439 18.1281 86.6652 19.2977V18.2336C86.6652 17.6913 86.6447 17.2311 86.6037 16.7944C87.186 16.8354 87.7274 16.8559 88.6872 16.8559H98.6597C99.4703 16.8559 100.056 16.8354 100.699 16.7709C100.638 17.1666 100.614 17.5213 100.614 18.1691V19.6494C100.614 20.1917 100.635 20.5874 100.72 21.0476H99.6781V22.0706C99.2421 22.0296 98.9699 22.0091 98.2618 22.0091H95.0341V22.5514H98.0335C99.0753 22.5514 99.283 22.5514 99.7629 22.5103C99.722 23.0936 99.7015 23.4278 99.7015 24.1987V27.3704C99.7015 28.2058 99.722 28.537 99.7629 29.0793C98.9524 29.0382 98.6188 29.0382 98.013 29.0382H95.0371V29.6216H98.7651C99.8478 29.6216 100.243 29.601 100.617 29.5366V31.9783C100.243 31.9373 99.7015 31.9167 98.6802 31.9167H95.0371V32.8342C95.6399 32.8342 96.0788 32.8342 96.3685 32.8137C98.5954 32.8137 99.6166 32.7522 101.302 32.5851C100.866 33.8162 100.699 34.4406 100.553 35.5662C98.2413 35.6482 95.9091 35.6922 92.7458 35.6922C89.5826 35.6922 88.3536 35.5867 87.3938 35.2555C86.5598 34.9858 85.916 34.5461 85.1669 33.7752C84.1457 34.6311 83.5224 35.1089 82.7089 35.6307C82.5216 35.7567 82.4807 35.7977 82.3548 35.8798L81 32.5177C81.6467 32.2685 82.3519 31.8493 83.6248 30.9318V26.9688H82.7499C82.27 26.9688 82.0213 26.9893 81.4389 27.0743V23.9261C82.0417 24.0111 82.3753 24.0317 83.1888 24.0317H85.1874C85.8341 24.0317 86.2701 24.0111 86.791 23.9496C86.7295 24.5974 86.7091 25.0752 86.7091 26.3268V31.4771C87.0426 31.9578 87.2504 32.1659 87.6454 32.3535C88.415 32.7287 89.5826 32.8958 91.4144 32.8958C91.4963 32.8958 91.6017 32.8958 92.0611 32.8753V31.9167H88.9798C88.0844 31.9167 87.584 31.9373 87.148 32.0018V29.5395C87.8766 29.601 88.1488 29.6245 88.9388 29.6245H92.0611V29.0412H89.2929C88.418 29.0412 88.2512 29.0412 87.543 29.0822C87.6045 28.666 87.6045 28.4344 87.6045 27.3733V23.6183C87.6045 22.994 87.6045 22.8474 87.543 22.5133C88.1253 22.5543 88.3126 22.5543 89.2929 22.5543H92.0611V22.012H89.0208L89.0149 22.0062ZM92.0553 19.6494V19.3358H89.6616V20.0041H92.0553V19.6494ZM90.4722 24.3218V24.9902H92.0553V24.3218H90.4722ZM90.4722 26.617V27.2648H92.0553V26.617H90.4722ZM97.5741 20.0041V19.3358H95.0341V20.0041H97.5741ZM95.0341 24.9902H96.784V24.3218H95.0341V24.9902ZM95.0341 27.2619H96.784V26.6141H95.0341V27.2619Z" fill="white"/>
<path d="M112.688 27.9302C112.085 27.8482 111.752 27.8247 110.815 27.8247H110.587C111.295 28.5341 111.711 28.8477 112.96 29.6392C112.419 30.4101 112.085 30.9524 111.418 32.1835C110.628 31.5591 110.253 31.1605 109.481 30.0759C109.501 30.5332 109.522 31.2015 109.522 31.4741V33.9774C109.522 34.7689 109.563 35.3756 109.668 35.8974H106.379C106.464 35.3141 106.505 34.8128 106.505 33.9569V32.1014C106.505 31.7467 106.525 31.1839 106.566 30.7032C105.566 32.3711 104.942 33.1449 103.652 34.3321C103.151 33.0599 102.797 32.3711 102.089 31.3276C103.547 30.2635 104.67 29.0969 105.463 27.8247H104.527C103.549 27.8247 103.09 27.8452 102.528 27.9302V24.9697C103.07 25.0517 103.465 25.0752 104.527 25.0752H106.505V24.8465C106.505 24.2222 106.484 23.8441 106.4 23.4073H109.627C109.545 23.762 109.522 24.1577 109.522 24.8465V25.0752H110.812C111.769 25.0752 112.208 25.0547 112.685 24.9931V25.8696C115.307 25.0341 117.993 23.3663 119.328 21.7394L121.66 24.0141C121.452 24.1606 121.265 24.3277 120.826 24.6824C118.535 26.6229 116.556 27.854 114.037 28.8946C113.601 27.9977 113.226 27.3498 112.685 26.5994V27.9332L112.688 27.9302ZM108.588 19.5234C106.716 19.8165 105.381 19.9601 103.468 20.1477C103.113 18.9576 102.885 18.3743 102.344 17.4363H102.78C104.424 17.4363 107.485 17.1227 109.068 16.768C110.025 16.5599 110.798 16.3312 111.254 16.0586L113.273 18.5824C113.051 18.6235 112.766 18.686 112.419 18.77C111.398 19.0192 109.651 19.3534 108.609 19.5204C109.256 20.8336 109.463 21.4609 109.774 22.6686L107.359 23.3369C106.985 21.9593 106.798 21.4404 106.215 20.2708L108.588 19.5204V19.5234ZM105.068 20.1301C105.61 21.1942 105.902 21.9856 106.318 23.4894L103.86 24.4069C103.485 22.8855 103.213 22.0912 102.631 20.9861L105.068 20.1301ZM121.247 18.4388C121.142 18.5443 120.644 18.9401 120.434 19.1482C118.789 20.5874 116.916 21.713 114.479 22.7771C114.084 21.9211 113.876 21.5254 113.437 20.8571C113.063 22.0472 112.627 23.0878 111.959 24.3394L109.607 23.3369C110.315 21.7922 110.648 20.7311 110.982 19.2068L112.773 19.9367C115.187 19.1863 117.666 17.6415 118.666 16.2667L121.247 18.4359V18.4388ZM122.037 29.8912C121.683 30.2254 121.622 30.287 121.227 30.6622C120.747 31.1224 119.228 32.3506 118.581 32.8108C116.477 34.2911 114.812 35.1265 112.48 35.8564C111.959 34.6897 111.544 33.9569 110.73 32.9368C113.25 32.289 115.143 31.4155 117.019 30.0788C118.207 29.2229 118.997 28.493 119.705 27.5961L122.037 29.8912Z" fill="white"/>
<path d="M128.888 26.0103C128.326 26.0103 127.951 26.0308 127.471 26.0923V24.9257C126.471 25.9692 125.973 26.406 124.89 27.2414C124.223 26.0513 123.702 25.3009 122.766 24.3013C125.16 22.6335 126.784 20.775 128.013 18.3567C128.428 17.5418 128.636 17.023 128.741 16.4162L132.156 17.6679C131.948 18.0226 131.843 18.2102 131.615 18.7319C131.033 20.0041 129.991 21.7365 128.97 23.1112H136.818C135.714 21.6925 134.88 20.2533 134.131 18.5238C134.006 18.2102 133.862 17.92 133.736 17.6269L136.838 16.4368C137.005 16.9996 137.172 17.3953 137.693 18.3567C138.942 20.6519 140.692 22.4664 143.065 23.9261C142.064 25.1778 141.816 25.553 140.961 27.1183C140.066 26.45 139.712 26.1598 139.191 25.679C139.17 29.8707 138.878 32.7082 138.357 33.8338C137.795 35.0444 136.794 35.4401 134.213 35.4401C134.075 35.4401 133.582 35.4333 132.736 35.4196C132.589 34.1885 132.402 33.4996 131.84 32.0838C132.715 32.2099 133.546 32.2714 134.047 32.2714C135.129 32.2714 135.378 32.1249 135.589 31.2484C135.796 30.4335 135.943 28.3699 135.943 26.0132H132.777C132.548 28.2644 132.089 29.7037 131.112 31.3305C130.301 32.6642 129.195 33.8338 127.822 34.7923C127.176 35.2291 126.74 35.4812 125.739 35.9384C125.072 34.7484 124.656 34.165 123.679 33.101C126.116 32.1219 127.615 30.9319 128.531 29.264C129.113 28.2204 129.341 27.3674 129.426 26.0103H128.885H128.888Z" fill="white"/>
<path d="M146.647 18.3978C146.647 17.5008 146.626 16.938 146.521 16.3107H149.831C149.749 16.894 149.705 17.5213 149.705 18.3978V19.837H150.621C151.08 19.837 151.475 19.796 151.891 19.7315V22.8386C151.455 22.7771 151.08 22.7566 150.641 22.7566H149.807C150.389 23.9232 150.995 24.7176 152.16 25.8432C151.618 26.8457 151.285 27.6371 150.951 28.7832C150.369 28.0328 150.097 27.6166 149.681 26.8222C149.681 27.2795 149.702 28.1149 149.702 29.1174V33.3707C149.702 34.3937 149.743 35.2467 149.828 35.956H146.539C146.62 35.2467 146.664 34.3907 146.664 33.3707V30.8879C146.664 30.0808 146.678 29.2815 146.705 28.4901C146.059 30.0349 145.684 30.7003 144.853 31.8493C144.394 30.2635 144.165 29.6802 143.542 28.4491C144.979 26.6551 145.789 25.0078 146.416 22.7566H145.687C145.02 22.7566 144.645 22.7771 144.189 22.8621V19.7344C144.604 19.8194 145.043 19.84 145.751 19.84H146.647V18.4007V18.3978ZM160.868 22.61C161.971 22.61 162.68 22.569 163.388 22.484V25.7377C162.639 25.6526 161.91 25.6116 160.848 25.6116H160.66V33.2651C160.66 34.2442 160.701 35.2056 160.786 35.9355H157.31C157.392 35.1646 157.436 34.2471 157.436 33.2651V25.6116H155.624C155.499 28.4901 155.124 30.7413 154.46 32.5558C153.98 33.91 153.459 34.8304 152.523 35.9971C151.648 34.9946 151.004 34.4318 149.836 33.6198C151.086 32.119 151.648 30.9289 152.022 28.9679C152.376 27.215 152.482 25.5061 152.482 21.8567C152.482 18.9987 152.461 18.5414 152.356 17.7676C152.605 17.7881 152.751 17.7881 152.877 17.7881C154.627 17.7881 157.5 17.3718 159.393 16.8295C159.996 16.6625 160.394 16.5159 160.977 16.2257L163.142 19.2068C163.037 19.2273 162.955 19.2478 162.914 19.2684C162.748 19.3094 162.581 19.3514 162.413 19.3944C160.561 19.9572 158.416 20.3324 155.689 20.605V22.6071H160.874L160.868 22.61Z" fill="white"/>
<path d="M166.282 24.8847C166.554 24.571 166.697 24.3834 166.823 24.1958C166.094 23.0057 165.345 21.9241 164.532 20.9626L165.928 18.3773L166.428 19.0016C167.031 17.8965 167.49 16.7709 167.637 15.9971L170.302 16.9996C170.261 17.0973 169.991 17.6464 169.492 18.6469C169.097 19.4384 168.596 20.2943 168.055 21.1297C168.242 21.3994 168.304 21.5049 168.494 21.7775C169.515 20.1096 170.223 18.8169 170.367 18.3362L172.594 19.4618V18.6264C172.594 17.791 172.573 17.3953 172.532 16.812C173.033 16.853 173.51 16.8735 174.262 16.8735H181.694C182.797 16.8735 183.465 16.853 184.006 16.7885C183.921 17.4568 183.901 18.1222 183.901 19.2508V33.5377C183.901 34.5608 183.587 35.2261 182.964 35.4988C182.569 35.6864 181.776 35.7684 180.673 35.7684C180.298 35.7684 179.549 35.7479 179.216 35.7274C179.195 34.7044 179.11 34.1211 178.841 33.2886H178.633C177.758 33.2886 177.258 33.1831 176.927 32.9544C176.468 32.6613 176.24 32.1425 176.24 31.4331V28.7832H175.344V33.3501C175.344 34.7044 175.365 35.2056 175.45 35.8945H172.474C172.556 35.1851 172.599 34.5168 172.599 33.3501V27.47L171.248 27.9508L171.142 27.2619L170.121 27.344V33.2886C170.121 34.6223 170.141 35.1851 170.247 35.8945H167.435C167.54 35.103 167.56 34.5813 167.56 33.2886V27.5521C167.206 27.5726 166.914 27.5931 166.747 27.5931C166.352 27.6342 166.1 27.6547 165.998 27.6547C165.375 27.6957 165.143 27.7163 164.895 27.7602L164.646 24.7996C164.98 24.8612 165.228 24.8847 165.77 24.8847H166.291H166.282ZM167.113 28.3465C167.028 31.7467 166.926 32.8929 166.53 34.936L164.532 33.8719C164.968 31.9959 165.114 30.7853 165.179 28.1149L167.116 28.3435L167.113 28.3465ZM172.588 19.922C172.518 20.0334 172.406 20.2073 172.254 20.4438C171.42 21.8215 170.402 23.2607 169.173 24.8026C169.7 24.7752 170.206 24.74 170.692 24.6971C170.607 24.2603 170.545 24.0082 170.358 23.3633L171.815 22.8005C172.19 24.0522 172.336 24.5739 172.585 25.6995V19.922H172.588ZM171.923 28.3054C172.07 29.5366 172.237 31.7878 172.298 33.2681L170.654 33.7048C170.654 31.266 170.592 30.0964 170.405 28.6367L171.923 28.3025V28.3054ZM178.001 22.5279C178.461 21.5049 178.709 20.7545 178.897 19.796L180.895 20.3998C180.626 21.1707 180.436 21.631 180.02 22.5279H181.124V19.6494H175.335V22.5279H176.272C175.918 21.3613 175.812 21.1502 175.438 20.4438L177.29 19.796C177.685 20.5259 177.852 20.9626 178.165 21.9651L176.562 22.5279H177.998H178.001ZM176.837 25.0312H175.338V26.2623H176.837V25.0312ZM178.668 30.202C178.668 30.5156 178.774 30.5566 179.502 30.5566C179.856 30.5566 180.272 30.5156 180.585 30.4746V32.9779C181.045 32.9779 181.126 32.9163 181.126 32.6232V28.7862H178.668V30.2049V30.202ZM181.126 26.2623V25.0312H179.502V26.2623H181.126Z" fill="white"/>
</g>
<defs>
<clipPath id="clip0_65_38">
<rect width="73" height="36" fill="white"/>
</clipPath>
<clipPath id="clip1_65_38">
<rect width="103" height="20" fill="white" transform="translate(81 16)"/>
</clipPath>
</defs>
</svg>
