<svg width="24" height="24" viewBox="0 0 24 24" fill="none" xmlns="http://www.w3.org/2000/svg">
<g clip-path="url(#clip0_65_56)">
<path d="M16.4544 6.76884H10.494C9.96872 6.76884 9.54291 7.19461 9.54291 7.71999C9.54291 8.24531 9.96867 8.67113 10.494 8.67113H16.4544C16.9801 8.67113 17.4056 8.24536 17.4056 7.71999C17.4055 7.19461 16.9798 6.76884 16.4544 6.76884Z" fill="white"/>
<path d="M18.7371 11.3659H10.494C9.96872 11.3659 9.54291 11.7917 9.54291 12.3171C9.54291 12.8424 9.96867 13.2682 10.494 13.2682H18.7371C19.2624 13.2682 19.6883 12.8424 19.6883 12.3171C19.6883 11.7917 19.2624 11.3659 18.7371 11.3659Z" fill="white"/>
<path d="M23.0489 0.808456H6.21398C5.68866 0.808456 5.26284 1.23422 5.26284 1.7596V10.7318H3.58256C1.60706 10.7318 0 12.3392 0 14.3144V19.609C0 21.5845 1.60706 23.1915 3.58256 23.1915C3.74423 23.1915 3.90342 23.1808 4.05909 23.1599H19.7517C22.094 23.1599 24 21.2541 24 18.9115V1.7596C24 1.23422 23.5742 0.808456 23.0489 0.808456ZM5.26289 19.609C5.26289 20.4241 4.6792 21.1058 3.90787 21.2576H3.58261V21.2893C2.65589 21.2893 1.90228 20.5353 1.90228 19.6089V14.3144C1.90228 13.388 2.65622 12.6341 3.58261 12.6341H5.26294L5.26289 19.609ZM22.0978 18.9115C22.0978 20.1832 21.0236 21.2576 19.7517 21.2576H6.7628C7.01991 20.7639 7.16512 20.2031 7.16512 19.609V2.71069H22.0978V18.9115Z" fill="white"/>
<path d="M16.4544 15.678H10.494C9.96872 15.678 9.54291 16.1038 9.54291 16.6291C9.54291 17.1545 9.96867 17.5803 10.494 17.5803H16.4544C16.9801 17.5803 17.4056 17.1545 17.4056 16.6291C17.4055 16.1038 16.9798 15.678 16.4544 15.678Z" fill="white"/>
</g>
<defs>
<clipPath id="clip0_65_56">
<rect width="24" height="24" fill="white"/>
</clipPath>
</defs>
</svg>
