<svg width="24" height="24" viewBox="0 0 24 24" fill="none" xmlns="http://www.w3.org/2000/svg">
<path fill-rule="evenodd" clip-rule="evenodd" d="M7 6C7 3.2 9.2 1 12 1C14.8 1 17 3.2 17 6H17.5C18 6 18.5 6.1 19 6.3C19.7 6.6 20.3 7.2 20.7 7.9C21 8.3 21.1 8.8 21.2 9.3C21.3 9.8 21.3 10.4 21.4 11.1L22 16.8V16.9C22 20.2 19.3 22.9 16 22.9H8C4.7 22.9 2 20.2 2 16.9V16.8L2.6 11.1C2.7 10.4 2.7 9.8 2.8 9.3C2.9 8.8 3 8.3 3.3 7.9C3.7 7.2 4.3 6.7 5 6.3C5.5 6.2 5.9 6.1 6.5 6H7ZM5.9 8.2C6 8.1 6.2 8.1 6.6 8H8.3H15.6H17.3C17.7 8 17.9 8.1 18.1 8.2C18.5 8.4 18.8 8.6 19 9C19.1 9.1 19.2 9.3 19.2 9.7C19.3 10.1 19.3 10.6 19.4 11.4L20 17C20 19.2 18.2 21 16 21H8C5.8 21 4 19.2 4 17L4.6 11.4C4.7 10.6 4.7 10.1 4.8 9.7C4.8 9.3 4.9 9.1 5 9C5.2 8.6 5.5 8.4 5.9 8.2ZM9 6C9 4.3 10.3 3 12 3C13.7 3 15 4.3 15 6H9ZM9 11C9 10.4 8.6 10 8 10C7.4 10 7 10.4 7 11C7 13.8 9.2 16 12 16C14.8 16 17 13.8 17 11C17 10.4 16.6 10 16 10C15.4 10 15 10.4 15 11C15 12.7 13.7 14 12 14C10.3 14 9 12.7 9 11Z" fill="white"/>
</svg>
