<svg width="24" height="25" viewBox="0 0 24 25" fill="none" xmlns="http://www.w3.org/2000/svg">
<path d="M15.7656 8.78442C15.3773 8.78442 15.0625 9.09924 15.0625 9.48755V10.9938C15.0971 11.9257 16.4345 11.925 16.4688 10.9938V9.48755C16.4688 9.09924 16.154 8.78442 15.7656 8.78442Z" fill="white"/>
<path d="M15.7656 13.3032C15.3773 13.3032 15.0625 13.618 15.0625 14.0063V15.5126C15.0971 16.4445 16.4345 16.4438 16.4688 15.5126V14.0063C16.4688 13.618 16.154 13.3032 15.7656 13.3032Z" fill="white"/>
<path d="M23.2969 10.1906C23.6852 10.1906 24 9.87581 24 9.4875V7.73269C24 5.56172 22.7039 4.26562 20.5329 4.26562H3.46711C1.29609 4.26562 0 5.56177 0 7.73273V9.48755C0 9.87586 0.314812 10.1907 0.703125 10.1907C3.76289 10.3069 3.76153 14.6939 0.703078 14.8094C0.314766 14.8094 0 15.1242 0 15.5125V17.2673C0 19.4383 1.29609 20.7344 3.46711 20.7344H20.5329C22.7039 20.7344 24 19.4383 24 17.2673V15.5125C24 15.1242 23.6852 14.8094 23.2969 14.8094C20.2372 14.6933 20.2385 10.3061 23.2969 10.1906ZM22.5938 16.1489V17.2673C22.5938 18.6733 21.9389 19.3281 20.5329 19.3281H16.4687V18.525C16.4341 17.5931 15.0968 17.5938 15.0625 18.525V19.3281H3.46711C2.06109 19.3282 1.40625 18.6733 1.40625 17.2673V16.1489C5.39827 15.3179 5.3955 9.68058 1.40625 8.85108V7.73269C1.40625 6.32672 2.06109 5.67188 3.46711 5.67188H15.0625V6.47498C15.0971 7.40691 16.4345 7.4062 16.4688 6.47498V5.67188H20.5329C21.939 5.67188 22.5938 6.32672 22.5938 7.73269V8.85108C18.6017 9.68213 18.6045 15.3195 22.5938 16.1489Z" fill="white"/>
</svg>
